<?xml version="1.0" standalone="no"?>
<!DOCTYPE svg PUBLIC "-//W3C//DTD SVG 20010904//EN"
 "http://www.w3.org/TR/2001/REC-SVG-20010904/DTD/svg10.dtd">
<svg version="1.0" xmlns="http://www.w3.org/2000/svg"
 width="860.000000pt" height="325.000000pt" viewBox="0 0 860.000000 325.000000"
 preserveAspectRatio="xMidYMid meet">

<g transform="translate(0.000000,325.000000) scale(0.100000,-0.100000)"
fill="#000000" stroke="none">
<path d="M1847 2175 l-218 -649 656 -656 655 -655 -306 910 c-168 501 -365
1088 -438 1305 l-132 395 -217 -650z"/>
<path d="M4015 2781 c-181 -52 -321 -180 -396 -361 -41 -98 -50 -233 -24 -343
50 -210 216 -381 430 -442 95 -28 250 -24 348 9 212 71 341 233 363 455 3 38
3 90 0 115 l-7 46 -270 0 -269 0 0 -80 0 -80 195 0 c108 0 195 -4 195 -9 0
-32 -45 -145 -71 -177 -133 -167 -411 -193 -595 -54 -62 47 -127 141 -148 214
-22 76 -21 199 4 279 25 82 87 165 159 215 77 53 133 73 224 79 100 7 187 -15
268 -69 68 -46 67 -46 131 34 l29 38 -28 25 c-43 38 -151 92 -219 109 -83 21
-240 20 -319 -3z"/>
<path d="M5075 2367 c-182 -61 -283 -205 -273 -391 13 -248 243 -416 483 -352
188 50 295 202 282 402 -9 146 -75 247 -203 311 -67 33 -86 37 -162 40 -53 2
-103 -2 -127 -10z m224 -170 c22 -15 53 -46 68 -69 26 -38 28 -50 28 -134 0
-86 -2 -95 -30 -136 -37 -53 -120 -98 -179 -98 -45 0 -131 36 -158 66 -59 66
-76 196 -37 279 24 50 78 101 124 115 55 17 139 7 184 -23z"/>
<path d="M6794 2370 c-63 -13 -141 -56 -189 -106 -184 -189 -128 -504 110
-615 109 -51 260 -37 319 30 11 11 23 21 28 21 16 0 8 -134 -11 -175 -44 -95
-143 -135 -256 -104 -38 11 -100 63 -122 103 -11 19 -13 19 -77 -8 -36 -16
-66 -31 -66 -35 0 -16 63 -102 93 -127 18 -15 57 -39 87 -53 48 -23 68 -26
160 -26 95 0 111 3 162 28 67 33 121 90 157 166 l26 56 3 413 3 412 -76 0 -75
0 0 -29 0 -30 -50 34 c-45 30 -126 57 -168 54 -9 -1 -36 -5 -58 -9z m194 -172
c22 -15 49 -47 66 -78 25 -45 29 -65 29 -125 0 -161 -114 -260 -268 -231 -44
9 -109 65 -138 120 -27 54 -29 165 -3 216 66 127 204 170 314 98z"/>
<path d="M7843 2366 c-60 -19 -106 -50 -157 -107 -67 -74 -90 -142 -90 -264
-1 -92 2 -105 31 -167 40 -84 97 -141 181 -181 61 -29 76 -32 162 -32 82 0
103 4 153 27 63 30 113 67 146 110 l22 27 -60 40 c-68 47 -76 49 -91 21 -16
-31 -93 -70 -149 -77 -36 -4 -64 -1 -95 11 -46 18 -124 93 -109 105 4 4 121
54 258 110 138 57 251 104 252 105 1 1 -13 33 -32 72 -82 169 -256 252 -422
200z m193 -152 c37 -18 69 -54 56 -64 -18 -16 -334 -142 -339 -136 -12 12 18
101 46 136 59 74 159 101 237 64z"/>
<path d="M4850 908 l0 -183 -26 33 c-77 97 -246 105 -344 16 -61 -55 -84 -125
-84 -259 0 -93 3 -117 22 -160 46 -100 107 -139 222 -139 82 -1 133 19 179 68
30 32 41 33 41 4 0 -39 12 -68 26 -68 12 0 14 71 14 435 l0 435 -25 0 -25 0 0
-182z m-113 -129 c81 -25 118 -121 111 -288 -7 -172 -63 -237 -203 -235 -117
1 -172 49 -196 172 -23 121 3 254 63 314 54 54 128 66 225 37z"/>
<path d="M7640 918 c1 -95 1 -177 1 -181 -1 -5 -13 6 -27 23 -84 99 -254 102
-350 6 -57 -56 -79 -129 -78 -256 2 -142 35 -216 122 -267 39 -23 58 -28 122
-28 82 0 133 20 179 69 14 14 28 26 32 26 4 0 11 -20 15 -45 4 -28 11 -45 20
-45 12 0 14 71 14 435 l0 435 -26 0 -25 0 1 -172z m-150 -129 c115 -25 155
-103 149 -293 -4 -99 -7 -116 -31 -157 -36 -60 -82 -83 -168 -84 -91 0 -141
29 -178 104 -24 50 -27 67 -27 161 0 92 4 112 26 161 34 72 81 105 171 118 4
1 30 -4 58 -10z"/>
<path d="M3812 636 c-89 -222 -162 -407 -162 -410 0 -3 11 -6 24 -6 24 0 36
22 111 218 l28 72 172 0 171 0 58 -145 c53 -132 60 -145 83 -145 31 0 40 -31
-117 370 -70 179 -138 353 -151 388 -15 40 -30 62 -40 62 -11 0 -60 -113 -177
-404z m229 186 c25 -70 58 -157 72 -194 l26 -68 -149 0 c-83 0 -150 4 -150 9
0 4 26 75 59 157 32 82 64 166 70 187 7 20 16 37 19 37 4 0 28 -58 53 -128z"/>
<path d="M5033 1021 c2 -11 53 -196 113 -411 97 -351 110 -391 128 -388 16 3
29 38 78 208 32 113 79 281 103 374 24 92 46 170 49 173 2 2 6 -4 9 -14 3 -10
51 -181 108 -381 92 -325 105 -363 122 -360 17 3 35 59 128 393 60 215 109
398 109 408 0 10 -7 17 -19 17 -23 0 -20 6 -91 -260 -29 -107 -65 -242 -80
-300 -16 -58 -31 -120 -35 -138 -9 -42 -20 -31 -34 33 -6 28 -51 187 -100 355
-88 304 -89 305 -116 305 -25 0 -29 -6 -45 -60 -44 -145 -161 -575 -167 -609
-11 -71 -23 -55 -51 69 -10 41 -77 289 -133 493 -30 104 -34 112 -57 112 -19
0 -23 -4 -19 -19z"/>
<path d="M6265 823 c-78 -28 -111 -57 -144 -126 -79 -165 -33 -377 99 -451 48
-27 64 -31 130 -30 90 0 140 22 193 85 49 57 67 115 67 220 0 108 -21 176 -72
233 -64 74 -178 102 -273 69z m190 -57 c81 -44 126 -173 104 -305 -15 -96 -51
-155 -114 -189 -40 -21 -150 -21 -191 1 -42 22 -89 77 -105 124 -20 56 -18
208 4 264 46 120 184 168 302 105z"/>
<path d="M6955 825 c-23 -8 -58 -33 -81 -59 -23 -25 -44 -42 -48 -39 -3 4 -6
26 -6 50 0 36 -3 43 -20 43 -20 0 -20 -7 -20 -300 l0 -300 25 0 25 0 0 198 c0
206 5 244 41 296 38 56 67 70 147 74 61 4 72 7 72 22 0 31 -67 39 -135 15z"/>
<path d="M7992 830 c-97 -20 -150 -83 -137 -162 11 -61 56 -98 180 -148 121
-49 159 -76 175 -125 10 -30 9 -40 -7 -68 -29 -50 -83 -71 -178 -70 -46 1 -99
8 -124 17 -57 21 -61 20 -61 -8 0 -33 68 -51 190 -50 106 1 148 15 194 63 52
54 46 152 -12 204 -11 10 -73 40 -138 67 -134 56 -174 89 -174 143 0 17 7 40
14 49 37 49 175 67 266 34 41 -14 46 -14 57 1 17 22 10 29 -39 41 -66 17 -159
22 -206 12z"/>
</g>
</svg>
